<svg width="1575" height="1117" viewBox="0 0 1575 1117" fill="none" xmlns="http://www.w3.org/2000/svg">
<path fill-rule="evenodd" clip-rule="evenodd" d="M906.852 909.857L1020.83 899.357L1004.33 928.36L1036.44 946.47C1037.69 947.18 1038.47 948.5 1038.48 949.93C1038.49 952.14 1036.71 953.94 1034.5 953.96C997.851 954.18 970.872 954.2 953.565 954.04C933.97 953.85 917.784 953.48 905.005 952.93L906.852 909.857ZM586.325 808.857L616.325 880.857L578.522 894.751L539.119 943.81C538.254 944.89 536.894 945.45 535.522 945.28C533.329 945.02 531.765 943.03 532.029 940.83L545.981 824.966L586.325 808.857Z" fill="#222831"/>
<path fill-rule="evenodd" clip-rule="evenodd" d="M1022.43 626.357L1132.05 694.249C1157.33 709.907 1165.59 742.823 1150.69 768.559L1065.43 915.857L893.325 915.82L1059.93 747.357L926.931 697.857L807.825 773.142L639.431 938.36L572.825 778.547L733.931 718.857L823.931 662.857L863.431 615.857L1022.43 626.357Z" fill="#F4DFC8"/>
<path d="M1059.94 747.811L895.016 914.571L1064.89 914.607L1149.93 767.683C1164.63 742.298 1156.48 709.831 1131.55 694.387L1022.09 626.593L863.655 616.131L824.323 662.931L734.222 718.994L734.086 719.061L573.713 778.479L639.591 936.55L807.195 772.107L807.319 772.008L926.739 696.525L1059.58 745.965L1063.24 741.389C1063.5 741.065 1063.97 741.013 1064.29 741.272C1064.62 741.53 1064.67 742.002 1064.41 742.326L1061.06 746.516L1061.17 746.559L1061.02 746.718L1064.22 748.721C1064.57 748.941 1064.68 749.404 1064.46 749.755C1064.24 750.106 1063.78 750.213 1063.43 749.993L1059.94 747.811ZM823.328 661.784L823.251 661.875L823.429 661.721L823.328 661.784ZM823.328 661.784L862.996 614.584L1022.56 625.121L1132.34 693.111C1157.96 708.982 1166.33 742.347 1151.23 768.435L1065.76 916.107L891.424 916.07L1058.48 747.155L926.912 698.19L808.188 773.234L639.059 939.17L571.728 777.615L733.494 717.68L823.328 661.784ZM733.494 717.68L733.429 717.721L733.565 717.654L733.494 717.68Z" fill="#222831"/>
<path fill-rule="evenodd" clip-rule="evenodd" d="M916.825 469.857L991.914 470.729L1065.26 477.763L1223.83 487.857L1183.33 303.857L1249.83 304.357C1287.83 445.213 1306.91 517.821 1307.05 522.18C1307.9 547.571 1288.01 568.844 1262.62 569.694L1041.83 553.357L1021.33 622.357L921.825 617.857L916.825 469.857Z" fill="#F4DFC8"/>
<path d="M1022.37 623.157L916.073 614.046L916.578 469.099L917.334 469.108L992.486 469.983L1065.81 477.015L1223.38 487.046L1182.89 303.101L1250.9 303.612L1251.05 304.162C1289.18 445.474 1308.15 517.698 1308.3 522.155C1309.17 547.96 1288.95 569.58 1263.06 570.443L1042.87 554.15L1022.37 623.157ZM917.578 612.669L1021.28 621.558L1041.78 552.565L1042.38 552.61L1263.09 568.945C1288.07 568.108 1307.64 547.182 1306.8 522.205C1306.66 517.95 1287.53 445.144 1249.75 305.103L1184.76 304.615L1225.27 488.669L1224.28 488.606L1065.69 478.51L992.405 471.479L918.073 470.616L917.578 612.669Z" fill="#222831"/>
<path fill-rule="evenodd" clip-rule="evenodd" d="M973.825 624.357L1022.48 625.669L1025.08 615.169L973.825 613.357V624.357Z" fill="#222831"/>
<path fill-rule="evenodd" clip-rule="evenodd" d="M723.325 385.857L653.008 621.442C648.428 636.789 656.71 653.027 671.823 658.33L701.825 668.857L853.825 567.357L853.931 469.857L783.825 497.357L822.825 385.857L795.825 320.857L767.325 334.857L723.325 385.857Z" fill="#F4DFC8"/>
<path d="M824.277 385.107H723.161L652.684 621.227C647.989 636.958 656.478 653.603 671.969 659.038L702.325 669.689L854.97 567.759L855.076 468.757L785.468 496.062L824.277 385.107ZM724.279 386.607H822.163L782.973 498.652L853.574 470.958L853.471 566.956L702.115 668.026L672.466 657.622C657.731 652.452 649.656 636.62 654.122 621.656L724.279 386.607Z" fill="#222831"/>
<path fill-rule="evenodd" clip-rule="evenodd" d="M825.825 411.858L820.38 435.178L708.825 406.858L713.873 382.858L825.825 411.858Z" fill="#F4DFC8"/>
<path d="M826.521 411.261L820.473 435.518L707.919 407.455L713.967 383.198L826.521 411.261ZM824.703 412.353L715.06 385.016L709.737 406.363L819.381 433.7L824.703 412.353Z" fill="#222831"/>
<path d="M720.889 397.806C720.054 401.155 722.092 404.547 725.441 405.382C728.79 406.217 732.182 404.179 733.017 400.83C733.852 397.481 731.814 394.089 728.465 393.254C725.116 392.419 721.724 394.457 720.889 397.806ZM722.344 398.169C722.979 395.623 725.557 394.074 728.102 394.709C730.647 395.344 732.196 397.922 731.562 400.467C730.927 403.013 728.349 404.562 725.804 403.927C723.258 403.292 721.709 400.714 722.344 398.169Z" fill="#222831"/>
<path d="M970.85 604.811L950.898 603.415C946.491 603.107 942.668 606.43 942.36 610.838L941.383 624.804C941.075 629.211 944.398 633.034 948.806 633.342L968.757 634.738C973.165 635.046 976.987 631.723 977.296 627.315L978.272 613.349C978.58 608.942 975.257 605.119 970.85 604.811Z" fill="#F4DFC8"/>
<path d="M950.896 603.197L970.847 604.592C975.255 604.9 978.578 608.723 978.27 613.13L977.293 627.096C976.985 631.504 973.162 634.827 968.755 634.519L948.803 633.124C944.396 632.815 941.073 628.993 941.381 624.585L942.357 610.619C942.666 606.212 946.489 602.889 950.896 603.197ZM950.791 604.693C947.21 604.443 944.104 607.143 943.854 610.724L942.877 624.69C942.627 628.271 945.327 631.377 948.908 631.627L968.859 633.022C972.44 633.273 975.546 630.573 975.797 626.992L976.773 613.026C977.024 609.445 974.324 606.339 970.743 606.088L950.791 604.693Z" fill="#222831"/>
<path fill-rule="evenodd" clip-rule="evenodd" d="M851.892 802.527L852.841 388.857H853.786V386.795H680.825V333.377L852.93 180.857H916.808V333.377H965.825V386.795H916.808V388.857H916.825V831.857H916.808V953.38H965.825V1006.79H916.808V1046.86H853.786V1006.79H680.825V953.38L851.892 802.527ZM747.93 953.36H852.93L852.43 865.857L747.93 953.36ZM747.825 333.857H852.825L852.43 245.857L747.825 333.857Z" fill="#FAF6F0"/>
<path d="M851.538 802.188L852.486 388.856C852.487 388.442 852.822 388.107 853.236 388.107H853.431V387.545H681.22C680.806 387.545 680.47 387.209 680.47 386.795V333.377C680.47 333.163 680.562 332.958 680.723 332.816L852.828 180.296C852.965 180.175 853.142 180.107 853.325 180.107H917.203C917.617 180.107 917.953 180.443 917.953 180.857V332.627H966.22C966.634 332.627 966.97 332.963 966.97 333.377V386.795C966.97 387.209 966.634 387.545 966.22 387.545H917.953V388.697C917.964 388.749 917.97 388.802 917.97 388.857V831.857C917.97 831.912 917.964 831.966 917.953 832.018V952.63H966.22C966.634 952.63 966.97 952.96 966.97 953.38V1006.79C966.97 1007.21 966.634 1007.54 966.22 1007.54H917.953V1046.86C917.953 1047.27 917.617 1047.61 917.203 1047.61H854.181C853.767 1047.61 853.431 1047.27 853.431 1046.86V1007.54H681.22C680.806 1007.54 680.47 1007.21 680.47 1006.79V953.38C680.47 953.16 680.563 952.96 680.724 952.81L851.538 802.188ZM853.431 388.107H854.181L853.431 388.857V388.107ZM853.037 802.529C853.037 802.744 852.945 802.948 852.783 803.09L681.97 953.72V1006.04H854.181C854.595 1006.04 854.931 1006.38 854.931 1006.79V1046.11H916.453V1006.79C916.453 1006.38 916.789 1006.04 917.203 1006.04H965.47V954.13H917.203C916.789 954.13 916.453 953.79 916.453 953.38V831.857C916.453 831.802 916.459 831.749 916.47 831.697V389.018C916.459 388.966 916.453 388.912 916.453 388.857V386.795C916.453 386.38 916.789 386.045 917.203 386.045H965.47V334.127H917.203C916.789 334.127 916.453 333.792 916.453 333.377V181.607H853.61L681.97 333.715V386.045H854.181C854.595 386.045 854.931 386.38 854.931 386.795V388.857C854.931 389.272 854.595 389.607 854.181 389.607H853.984L853.037 802.529ZM748.325 954.11C747.625 954.11 747.307 953.23 747.844 952.78L852.344 865.282C852.831 864.875 853.572 865.218 853.575 865.853L854.075 953.35C854.078 953.77 853.741 954.11 853.325 954.11H748.325ZM852.571 952.61L852.085 867.456L750.389 952.61H852.571ZM748.22 334.607C747.52 334.607 747.202 333.734 747.737 333.283L852.343 245.284C852.829 244.874 853.573 245.218 853.575 245.854L853.97 333.854C853.972 334.27 853.636 334.607 853.22 334.607H748.22ZM852.467 333.107L852.083 247.462L750.277 333.107H852.467Z" fill="#222831"/>
<path d="M823.325 739.857C726.703 739.857 680.825 695.057 680.825 613.507C680.825 532.307 726.703 487.857 823.325 487.857C919.6 487.857 965.825 532.657 965.825 613.507C965.825 694.707 919.6 739.857 823.325 739.857ZM822.825 686.857C878.469 686.857 903.825 659.264 903.825 613.508C903.825 568.101 878.469 540.857 822.825 540.857C767.182 540.857 741.825 567.752 741.825 613.508C741.825 659.613 767.182 686.857 822.825 686.857Z" fill="#FAF6F0"/>
<path d="M823.72 740.607C728.415 740.607 680.47 697.047 680.47 613.507C680.47 530.363 728.374 487.107 823.72 487.107C918.704 487.107 966.97 530.7 966.97 613.507C966.97 696.71 918.664 740.607 823.72 740.607ZM823.72 739.107C917.866 739.107 965.47 695.848 965.47 613.507C965.47 531.564 917.908 488.607 823.72 488.607C729.171 488.607 681.97 531.228 681.97 613.507C681.97 696.185 729.213 739.107 823.72 739.107ZM823.22 687.607C768.896 687.607 741.47 661.668 741.47 613.508C741.47 565.745 768.862 540.107 823.22 540.107C877.443 540.107 904.97 565.962 904.97 613.508C904.97 661.451 877.411 687.607 823.22 687.607ZM823.22 686.107C876.6 686.107 903.47 660.605 903.47 613.508C903.47 566.813 876.635 541.607 823.22 541.607C769.669 541.607 742.97 566.597 742.97 613.508C742.97 660.82 769.706 686.107 823.22 686.107Z" fill="#222831"/>
<path d="M730.939 718.356C697.186 697.551 680.825 662.036 680.825 613.507C680.825 564.743 697.487 529.233 731.873 508.645L761.414 560.067C748.15 572.509 741.825 590.656 741.825 613.508C741.825 635.781 747.743 653.653 760.134 666.177L730.939 718.356ZM915.711 718.356L886.516 666.177C898.907 653.653 904.825 635.781 904.825 613.508C904.825 590.656 898.5 572.509 885.237 560.067L914.777 508.645C949.163 529.233 965.825 564.743 965.825 613.507C965.825 662.036 949.465 697.551 915.711 718.356Z" fill="#222831"/>
<path d="M725.463 619.556C724.633 625.795 719.291 630.608 712.825 630.608C706.359 630.608 701.018 625.795 700.187 619.556L699.356 620.388C699.063 620.681 698.588 620.681 698.295 620.388C698.002 620.095 698.002 619.62 698.295 619.327L700.825 616.797L703.356 619.327C703.648 619.62 703.648 620.095 703.356 620.388C703.063 620.681 702.588 620.681 702.295 620.388L701.75 619.843C702.645 624.87 706.878 628.741 712.075 629.083V607.548C711.915 607.523 711.755 607.489 711.596 607.446C709.062 606.767 707.558 604.162 708.237 601.628C708.916 599.094 711.521 597.591 714.055 598.269C716.589 598.948 718.092 601.553 717.413 604.087C716.913 605.954 715.368 607.262 713.575 607.549V629.083C718.772 628.741 723.006 624.87 723.901 619.843L723.356 620.388C723.063 620.681 722.588 620.681 722.295 620.388C722.002 620.095 722.002 619.62 722.295 619.327L724.825 616.797L727.356 619.327C727.648 619.62 727.648 620.095 727.356 620.388C727.063 620.681 726.588 620.681 726.295 620.388L725.463 619.556ZM711.984 605.997C713.718 606.461 715.5 605.433 715.964 603.699C716.429 601.965 715.4 600.183 713.666 599.718C711.933 599.254 710.15 600.283 709.686 602.016C709.221 603.75 710.25 605.532 711.984 605.997Z" fill="#F4DFC8"/>
<path d="M934.575 629.083V607.548C934.735 607.523 934.895 607.489 935.055 607.446C937.589 606.767 939.092 604.162 938.413 601.628C937.734 599.094 935.13 597.591 932.596 598.269C930.062 598.948 928.558 601.553 929.237 604.087C929.737 605.954 931.283 607.262 933.075 607.549V629.083C927.878 628.741 923.645 624.87 922.75 619.843L923.295 620.388C923.588 620.681 924.063 620.681 924.356 620.388C924.648 620.095 924.648 619.62 924.356 619.327L921.825 616.797L919.295 619.327C919.002 619.62 919.002 620.095 919.295 620.388C919.588 620.681 920.063 620.681 920.356 620.388L921.187 619.556C922.018 625.795 927.359 630.608 933.825 630.608C940.291 630.608 945.633 625.795 946.463 619.556L947.295 620.388C947.588 620.681 948.063 620.681 948.356 620.388C948.648 620.095 948.648 619.62 948.356 619.327L945.825 616.797L943.295 619.327C943.002 619.62 943.002 620.095 943.295 620.388C943.588 620.681 944.063 620.681 944.356 620.388L944.901 619.843C944.006 624.87 939.772 628.741 934.575 629.083ZM934.666 605.997C932.933 606.461 931.15 605.433 930.686 603.699C930.221 601.965 931.25 600.183 932.984 599.718C934.718 599.254 936.5 600.283 936.964 602.016C937.429 603.75 936.4 605.532 934.666 605.997Z" fill="#F4DFC8"/>
<path fill-rule="evenodd" clip-rule="evenodd" d="M1127.83 320.857L1061.4 333.592C1068.66 341.614 1077.93 345.829 1089.22 346.237C1100.51 346.645 1115.95 345.342 1135.54 342.327L1127.83 320.857Z" fill="#F4DFC8"/>
<path d="M1111.52 322.012L1111.15 320.558L1059.82 333.579L1060.66 334.503C1068.05 342.676 1077.52 346.979 1089.01 347.394C1100.35 347.804 1115.84 346.497 1135.47 343.476L1135.24 341.993C1115.69 345.001 1100.3 346.301 1089.06 345.895C1078.41 345.51 1069.61 341.688 1062.63 334.415L1111.52 322.012Z" fill="#222831"/>
<mask id="mask0_1_3" style="mask-type:alpha" maskUnits="userSpaceOnUse" x="933" y="303" width="140" height="167">
<path d="M992.325 469.857L1002.33 429.857L1021.1 432.482C1036.98 434.701 1052.04 424.834 1056.35 409.397L1071.3 355.885C1077.39 334.075 1064.64 311.458 1042.83 305.368C1039.24 304.366 1035.53 303.857 1031.81 303.857H998.162C985.886 303.857 975.155 312.138 972.043 324.013L933.825 469.857H992.325Z" fill="white"/>
</mask>
<g mask="url(#mask0_1_3)">
<path d="M992.325 469.857L1002.33 429.857L1021.1 432.482C1036.98 434.701 1052.04 424.834 1056.35 409.397L1071.3 355.885C1077.39 334.075 1064.64 311.458 1042.83 305.368C1039.24 304.366 1035.53 303.857 1031.81 303.857H998.162C985.886 303.857 975.155 312.138 972.043 324.013L933.825 469.857H992.325Z" fill="#F4DFC8"/>
<mask id="mask1_1_3" style="mask-type:alpha" maskUnits="userSpaceOnUse" x="933" y="303" width="140" height="167">
<path d="M992.325 469.857L1002.33 429.857L1021.1 432.482C1036.98 434.701 1052.04 424.834 1056.35 409.397L1071.3 355.885C1077.39 334.075 1064.64 311.458 1042.83 305.368C1039.24 304.366 1035.53 303.857 1031.81 303.857H998.162C985.886 303.857 975.155 312.138 972.043 324.013L933.825 469.857H992.325Z" fill="white"/>
</mask>
<g mask="url(#mask1_1_3)">
<path d="M992.325 469.857L1002.33 429.857L1021.1 432.482C1036.98 434.701 1052.04 424.834 1056.35 409.397L1071.3 355.885C1077.39 334.075 1064.64 311.458 1042.83 305.368C1039.24 304.366 1035.53 303.857 1031.81 303.857H998.162C985.886 303.857 975.155 312.138 972.043 324.013L933.825 469.857H992.325Z" fill="#F4DFC8"/>
<path fill-rule="evenodd" clip-rule="evenodd" d="M1064.69 363.498L1069.83 362.857L1069.15 373.223C1069.06 374.757 1067.73 375.92 1066.2 375.82C1066.13 375.816 1066.06 375.809 1065.99 375.799C1064.35 375.569 1063.21 374.052 1063.44 372.411L1064.69 363.498Z" fill="#222831"/>
</g>
<path d="M1021 433.225C1037.24 435.496 1052.66 425.398 1057.08 409.599L1072.02 356.086C1078.22 333.878 1065.24 310.847 1043.04 304.646C1039.38 303.625 1035.6 303.107 1031.81 303.107H998.162C985.545 303.107 974.516 311.618 971.318 323.823L932.854 470.607H992.911L1002.89 430.694L1021 433.225ZM991.74 469.107H934.797L972.769 324.203C975.794 312.658 986.227 304.607 998.162 304.607H1031.81C1035.47 304.607 1039.11 305.106 1042.63 306.091C1064.04 312.069 1076.55 334.273 1070.57 355.683L1055.63 409.195C1051.42 424.271 1036.71 433.906 1021.21 431.739L1001.76 429.021L991.74 469.107Z" fill="#222831"/>
</g>
<mask id="mask2_1_3" style="mask-type:alpha" maskUnits="userSpaceOnUse" x="944" y="303" width="94" height="84">
<path d="M1011.81 357.841L1008.95 354.983C1002.79 348.818 992.809 348.762 986.575 354.857C980.647 360.654 980.54 370.159 986.337 376.087C986.501 376.255 986.669 376.419 986.841 376.579L988.873 378.471C978.132 383.094 963.449 385.889 944.825 386.857L971.354 319.107C974.956 309.909 983.824 303.857 993.702 303.857H1037.33C1028.06 327.857 1019.56 345.852 1011.81 357.841Z" fill="white"/>
</mask>
<g mask="url(#mask2_1_3)">
<path d="M1011.81 357.841L1008.95 354.983C1002.79 348.818 992.809 348.762 986.575 354.857C980.647 360.654 980.54 370.159 986.337 376.087C986.501 376.255 986.669 376.419 986.841 376.579L988.873 378.471C978.132 383.094 963.449 385.889 944.825 386.857L971.354 319.107C974.956 309.909 983.824 303.857 993.702 303.857H1037.33C1028.06 327.857 1019.56 345.852 1011.81 357.841Z" fill="#222831"/>
</g>
<path fill-rule="evenodd" clip-rule="evenodd" d="M997.825 283.357L1023.83 262.357L1042.33 283.357" fill="#F4DFC8"/>
<path fill-rule="evenodd" clip-rule="evenodd" d="M973.825 283.357C973.825 283.357 979.325 290.191 990.325 303.857H1046.83L1066.83 283.357C1004.83 283.357 973.825 283.357 973.825 283.357Z" fill="#F4DFC8"/>
<path d="M1023.74 263.892L1041.76 284.353L1042.89 283.361L1023.91 261.822L997.354 283.274L998.297 284.441L1023.74 263.892Z" fill="#222831"/>
<path d="M973.241 284.328L989.741 304.828C989.884 305.005 990.099 305.107 990.326 305.107H1046.83C1047.03 305.107 1047.22 305.026 1047.36 304.881L1067.36 284.381C1067.83 283.906 1067.49 283.107 1066.83 283.107H973.826C973.196 283.107 972.846 283.837 973.241 284.328ZM1065.05 284.607L1046.51 303.607H990.685L975.392 284.607H1065.05Z" fill="#222831"/>
<path fill-rule="evenodd" clip-rule="evenodd" d="M1061.83 364.857L1063.33 398.857L1047.83 387.357" fill="#F4DFC8"/>
<path fill-rule="evenodd" clip-rule="evenodd" d="M938.325 446.857H975.43L976.43 470.444L989.93 446.857H1002.33L994.325 470.857L930.825 470.357L938.325 446.857Z" fill="#F4DFC8"/>
<path d="M1043.56 362.824L1042.38 371.246C1042.15 372.886 1040.63 374.029 1038.99 373.799C1037.35 373.568 1036.21 372.051 1036.44 370.411L1037.66 361.722L1022.19 358.833C1021.78 358.757 1021.51 358.365 1021.59 357.958C1021.66 357.551 1022.06 357.283 1022.46 357.359L1047.96 362.12C1048.37 362.196 1048.64 362.588 1048.56 362.995C1048.49 363.402 1048.09 363.671 1047.69 363.595L1043.56 362.824ZM1061.94 363.616L1069.68 362.121C1070.09 362.042 1070.48 362.308 1070.56 362.715C1070.64 363.122 1070.37 363.515 1069.97 363.594L1062.61 365.015L1064.07 398.324C1064.1 398.955 1063.39 399.336 1062.88 398.96L1060.58 397.256L1063.33 406.857C1059.87 405.914 1057.07 403.381 1055.78 400.036L1055.33 398.857C1049.09 401.809 1042.22 403.127 1035.33 402.688L1022.33 401.857L1049.67 389.161L1047.38 387.46C1047.05 387.213 1046.98 386.743 1047.22 386.41C1047.47 386.078 1047.94 386.008 1048.27 386.255L1062.51 396.816L1061.08 364.39C1061.06 363.977 1061.38 363.626 1061.79 363.608C1061.84 363.606 1061.89 363.609 1061.94 363.616Z" fill="#222831"/>
<path d="M976.793 471.469L966.35 508.846C966.239 509.245 965.825 509.478 965.426 509.367C965.027 509.255 964.794 508.842 964.906 508.443L975.239 471.457L930.819 471.107C930.314 471.103 929.957 470.611 930.111 470.129L937.611 446.629C937.71 446.318 937.999 446.107 938.325 446.107H975.43C975.832 446.107 976.163 446.424 976.18 446.826L977.07 467.817L989.28 446.485C989.413 446.251 989.661 446.107 989.93 446.107H1002.33C1002.84 446.107 1003.2 446.609 1003.04 447.095L995.037 471.095C994.934 471.403 994.644 471.61 994.319 471.607L976.793 471.469ZM931.849 469.615L975.659 469.96L974.712 447.607H938.873L931.849 469.615ZM993.786 470.103L1001.28 447.607H990.365L977.563 469.975L993.786 470.103Z" fill="#222831"/>
<path fill-rule="evenodd" clip-rule="evenodd" d="M1070.53 333.857H1129.33C1132.33 347.191 1143.99 353.857 1164.33 353.857C1168.34 353.857 1173.31 352.394 1179.24 349.466L1194.33 349.357V303.857H1036.83C1038.82 320.96 1053.31 333.857 1070.53 333.857Z" fill="#F4DFC8"/>
<path d="M1164.22 354.607C1168.33 354.607 1173.36 353.138 1179.31 350.214L1194.97 350.102V303.107H1035.88L1035.98 303.944C1038.01 321.425 1052.82 334.607 1070.42 334.607H1128.63C1131.92 347.948 1143.87 354.607 1164.22 354.607ZM1193.47 304.607V348.613L1178.96 348.717L1178.8 348.793C1172.97 351.674 1168.1 353.107 1164.22 353.107C1144.2 353.107 1132.86 346.628 1129.95 333.693L1129.82 333.107H1070.42C1053.87 333.107 1039.89 320.914 1037.57 304.607H1193.47Z" fill="#222831"/>
<path d="M1036.28 304.468C1045.86 311.312 1057.33 311.312 1070.56 304.525L1069.88 303.19C1057.11 309.737 1046.24 309.737 1037.16 303.247L1036.28 304.468Z" fill="#222831"/>
<path d="M1217.83 301.857H1193.83V392.857H1217.83V301.857Z" fill="#F4DFC8"/>
<path d="M1193.22 301.857H1218.22V392.857H1193.22V301.857ZM1194.72 391.357H1216.72V303.357H1194.72V391.357Z" fill="#222831"/>
<path d="M1205.72 382.607C1209.17 382.607 1211.97 379.809 1211.97 376.357C1211.97 372.906 1209.17 370.107 1205.72 370.107C1202.27 370.107 1199.47 372.906 1199.47 376.357C1199.47 379.809 1202.27 382.607 1205.72 382.607ZM1205.72 381.107C1203.1 381.107 1200.97 378.981 1200.97 376.357C1200.97 373.734 1203.1 371.607 1205.72 371.607C1208.34 371.607 1210.47 373.734 1210.47 376.357C1210.47 378.981 1208.34 381.107 1205.72 381.107Z" fill="#222831"/>
<path d="M917.324 332.607L681.824 333.107L681.827 334.607L917.327 334.107L917.324 332.607Z" fill="#222831"/>
<path d="M917.325 386.357L853.22 387.357" stroke="#222831" stroke-width="1.5"/>
<path d="M896.575 1007.61H875.075V1045.86C875.075 1046.27 874.739 1046.61 874.325 1046.61C873.911 1046.61 873.575 1046.27 873.575 1045.86V1007.61H853.825V1006.11H917.825V1007.61H898.075V1045.86C898.075 1046.27 897.739 1046.61 897.325 1046.61C896.911 1046.61 896.575 1046.27 896.575 1045.86V1007.61Z" fill="#222831"/>
<path d="M965.628 952.61H681.825C681.411 952.61 681.075 952.94 681.075 953.36C681.075 953.77 681.411 954.11 681.825 954.11H965.628C966.042 954.11 966.378 953.77 966.378 953.36C966.378 952.94 966.042 952.61 965.628 952.61Z" fill="#222831"/>
<path fill-rule="evenodd" clip-rule="evenodd" d="M798.825 318.857H806.825C811.243 318.857 814.825 322.439 814.825 326.857V384.857C814.825 391.485 809.453 396.857 802.825 396.857C796.198 396.857 790.825 391.485 790.825 384.857V326.857C790.825 322.439 794.407 318.857 798.825 318.857Z" fill="#F4DFC8"/>
<path fill-rule="evenodd" clip-rule="evenodd" d="M822.825 318.857H830.825C835.243 318.857 838.825 322.439 838.825 326.857V384.857C838.825 391.485 833.453 396.857 826.825 396.857C820.198 396.857 814.825 391.485 814.825 384.857V326.857C814.825 322.439 818.407 318.857 822.825 318.857Z" fill="#F4DFC8"/>
<path fill-rule="evenodd" clip-rule="evenodd" d="M846.825 318.857H854.825C859.243 318.857 862.825 322.439 862.825 326.857V384.857C862.825 391.485 857.453 396.857 850.825 396.857C844.198 396.857 838.825 391.485 838.825 384.857V326.857C838.825 322.439 842.407 318.857 846.825 318.857Z" fill="#F4DFC8"/>
<path d="M838.72 387.869C837.203 393.063 832.405 396.857 826.72 396.857C821.036 396.857 816.238 393.063 814.72 387.869C813.203 393.063 808.405 396.857 802.72 396.857C795.817 396.857 790.22 391.261 790.22 384.357V326.857C790.22 322.439 793.802 318.857 798.22 318.857H807.22C810.657 318.857 813.588 321.025 814.72 324.067C815.853 321.025 818.783 318.857 822.22 318.857H831.22C834.657 318.857 837.588 321.025 838.72 324.067C839.853 321.025 842.783 318.857 846.22 318.857H855.22C859.638 318.857 863.22 322.439 863.22 326.857V384.357C863.22 391.261 857.624 396.857 850.72 396.857C845.036 396.857 840.238 393.063 838.72 387.869ZM798.22 320.357C794.63 320.357 791.72 323.268 791.72 326.857V384.357C791.72 390.433 796.645 395.357 802.72 395.357C808.795 395.357 813.72 390.433 813.72 384.357V326.857C813.72 323.268 810.81 320.357 807.22 320.357H798.22ZM822.22 320.357C818.63 320.357 815.72 323.268 815.72 326.857V384.357C815.72 390.433 820.645 395.357 826.72 395.357C832.795 395.357 837.72 390.433 837.72 384.357V326.857C837.72 323.268 834.81 320.357 831.22 320.357H822.22ZM846.22 320.357C842.63 320.357 839.72 323.268 839.72 326.857V384.357C839.72 390.433 844.645 395.357 850.72 395.357C856.795 395.357 861.72 390.433 861.72 384.357V326.857C861.72 323.268 858.81 320.357 855.22 320.357H846.22Z" fill="#222831"/>
<path d="M792.868 320.695L769.368 333.195L770.073 334.52L793.573 322.02L792.868 320.695Z" fill="#222831"/>
<path fill-rule="evenodd" clip-rule="evenodd" d="M726.644 506.98C729.513 505.323 733.183 506.306 734.84 509.176L763.34 558.539C764.997 561.409 764.013 565.079 761.144 566.735C758.274 568.392 754.604 567.409 752.947 564.539L724.447 515.176C722.791 512.306 723.774 508.637 726.644 506.98ZM726.644 721.101C724.252 719.721 723.433 716.663 724.813 714.271L754.313 663.176C755.694 660.784 758.752 659.965 761.144 661.346C763.535 662.726 764.354 665.784 762.974 668.176L733.474 719.271C732.093 721.663 729.035 722.482 726.644 721.101ZM919.962 507.096C922.592 508.614 923.494 511.978 921.975 514.609L893.975 563.106C892.456 565.737 889.092 566.638 886.462 565.119C883.831 563.601 882.93 560.237 884.449 557.606L912.449 509.109C913.967 506.478 917.331 505.577 919.962 507.096ZM919.895 719.869C917.025 721.526 913.355 720.543 911.699 717.673L883.699 669.176C882.042 666.306 883.025 662.637 885.895 660.98C888.764 659.323 892.434 660.306 894.091 663.176L922.091 711.673C923.748 714.543 922.764 718.213 919.895 719.869Z" fill="#F4DFC8"/>
<path d="M726.825 506.547C729.934 504.752 733.91 505.817 735.704 508.926L764.204 558.289C765.999 561.398 764.934 565.374 761.825 567.168C758.716 568.963 754.741 567.898 752.946 564.789L724.446 515.426C722.651 512.317 723.716 508.342 726.825 506.547ZM725.745 514.676L754.245 564.039C755.626 566.431 758.684 567.25 761.075 565.869C763.467 564.489 764.286 561.431 762.905 559.039L734.405 509.676C733.025 507.284 729.967 506.465 727.575 507.846C725.184 509.226 724.364 512.284 725.745 514.676ZM726.825 721.168C723.716 719.374 722.651 715.398 724.446 712.289L752.946 662.926C754.741 659.817 758.716 658.752 761.825 660.547C764.934 662.342 765.999 666.317 764.204 669.426L735.704 718.789C733.91 721.898 729.934 722.963 726.825 721.168ZM727.575 719.869C729.967 721.25 733.025 720.431 734.405 718.039L762.905 668.676C764.286 666.284 763.467 663.226 761.075 661.846C758.684 660.465 755.626 661.284 754.245 663.676L725.745 713.039C724.364 715.431 725.184 718.489 727.575 719.869ZM921.076 506.547C924.185 508.342 925.25 512.317 923.456 515.426L894.956 564.789C893.161 567.898 889.185 568.963 886.076 567.168C882.967 565.374 881.902 561.398 883.697 558.289L912.197 508.926C913.992 505.817 917.967 504.752 921.076 506.547ZM913.496 509.676L884.996 559.039C883.616 561.431 884.435 564.489 886.826 565.869C889.218 567.25 892.276 566.431 893.656 564.039L922.156 514.676C923.537 512.284 922.718 509.226 920.326 507.846C917.935 506.465 914.877 507.284 913.496 509.676ZM921.076 721.168C917.967 722.963 913.992 721.898 912.197 718.789L883.697 669.426C881.902 666.317 882.967 662.342 886.076 660.547C889.185 658.752 893.161 659.817 894.956 662.926L923.456 712.289C925.25 715.398 924.185 719.374 921.076 721.168ZM920.326 719.869C922.718 718.489 923.537 715.431 922.156 713.039L893.656 663.676C892.276 661.284 889.218 660.465 886.826 661.846C884.435 663.226 883.616 666.284 884.996 668.676L913.496 718.039C914.877 720.431 917.935 721.25 920.326 719.869Z" fill="#222831"/>
<path d="M793.842 383.901C793.541 384.186 793.067 384.174 792.781 383.874C792.496 383.574 792.508 383.099 792.809 382.814C799.775 376.195 806.274 376.195 811.899 382.874C812.166 383.191 812.125 383.664 811.808 383.931C811.491 384.198 811.018 384.157 810.752 383.841C805.709 377.853 800.208 377.853 793.842 383.901ZM818.342 383.901C818.041 384.186 817.567 384.174 817.281 383.874C816.996 383.574 817.008 383.099 817.309 382.814C824.275 376.195 830.774 376.195 836.399 382.874C836.666 383.191 836.625 383.664 836.308 383.931C835.991 384.198 835.518 384.157 835.252 383.841C830.209 377.853 824.708 377.853 818.342 383.901ZM842.342 383.901C842.041 384.186 841.567 384.174 841.281 383.874C840.996 383.574 841.008 383.099 841.309 382.814C848.275 376.195 854.774 376.195 860.399 382.874C860.666 383.191 860.625 383.664 860.308 383.931C859.991 384.198 859.518 384.157 859.252 383.841C854.209 377.853 848.708 377.853 842.342 383.901Z" fill="#222831"/>
<path d="M852.325 802.357L852.773 868.857" stroke="#222831" stroke-width="1.5" stroke-linejoin="round"/>
<path d="M852.47 181.353L853.97 181.362L853.575 246.362L852.075 246.353L852.47 181.353ZM873.575 180.108C873.575 179.693 873.911 180.608 874.325 180.608C874.739 180.608 875.075 180.943 875.075 181.358L874.825 333.358C874.825 333.772 874.739 333.858 874.325 333.858C873.911 333.858 873.325 333.772 873.325 333.358L873.575 180.108ZM897.075 181.358C897.075 180.943 897.411 180.608 897.825 180.608C898.239 180.608 898.575 180.943 898.575 181.358L898.325 333.358C898.325 333.772 897.989 334.108 897.575 334.108C897.161 334.108 896.825 333.772 896.825 333.358L897.075 181.358Z" fill="#222831"/>
</svg>
